<svg xmlns="http://www.w3.org/2000/svg" viewBox="0 0 24 24" fill="none">
  <circle cx="12" cy="12" r="11" fill="#B066FF"/>
  <path d="M12 4C12 4 8 7 8 11C8 13.5 9.5 15.5 11 16.5V19C11 19.55 11.45 20 12 20C12.55 20 13 19.55 13 19V16.5C14.5 15.5 16 13.5 16 11C16 7 12 4 12 4Z" fill="white"/>
  <circle cx="10" cy="10" r="1" fill="#B066FF"/>
  <circle cx="14" cy="10" r="1" fill="#B066FF"/>
  <path d="M6 7C6 7 4.5 8 4.5 9.5C4.5 11 6 12 6 12" stroke="white" stroke-width="1.2" stroke-linecap="round" fill="none"/>
  <path d="M18 7C18 7 19.5 8 19.5 9.5C19.5 11 18 12 18 12" stroke="white" stroke-width="1.2" stroke-linecap="round" fill="none"/>
  <path d="M7 4.5C7 4.5 5.5 5 5 6" stroke="white" stroke-width="1.2" stroke-linecap="round" fill="none"/>
  <path d="M17 4.5C17 4.5 18.5 5 19 6" stroke="white" stroke-width="1.2" stroke-linecap="round" fill="none"/>
</svg>
